<svg width="20" height="20" viewBox="0 0 20 20" fill="none" xmlns="http://www.w3.org/2000/svg">
<path d="M14.8 3.13593H5.2C3.43269 3.13593 2 4.56861 2 6.33593V14.3359C2 16.1033 3.43269 17.5359 5.2 17.5359H14.8C16.5673 17.5359 18 16.1033 18 14.3359V6.33593C18 4.56861 16.5673 3.13593 14.8 3.13593Z" stroke="white" stroke-width="1.2" stroke-linecap="round" stroke-linejoin="round"/>
<path d="M6 14.3359L14 6.33594" stroke="white" stroke-width="1.2" stroke-linecap="round" stroke-linejoin="round"/>
<path d="M6.79995 9.53592C7.68361 9.53592 8.39995 8.8196 8.39995 7.93594C8.39995 7.05228 7.68361 6.33594 6.79995 6.33594C5.9163 6.33594 5.19995 7.05228 5.19995 7.93594C5.19995 8.8196 5.9163 9.53592 6.79995 9.53592Z" stroke="white" stroke-width="1.2" stroke-linecap="round" stroke-linejoin="round"/>
<path d="M13.1999 14.3359C14.0835 14.3359 14.7999 13.6196 14.7999 12.7359C14.7999 11.8523 14.0835 11.1359 13.1999 11.1359C12.3162 11.1359 11.5999 11.8523 11.5999 12.7359C11.5999 13.6196 12.3162 14.3359 13.1999 14.3359Z" stroke="white" stroke-width="1.2" stroke-linecap="round" stroke-linejoin="round"/>
</svg>
