<svg width="20" height="20" viewBox="0 0 20 20" fill="none" xmlns="http://www.w3.org/2000/svg">
<path d="M13.2958 12.5C13.7928 12.5002 14.2692 12.6977 14.6205 13.0492C14.9718 13.4006 15.1692 13.8772 15.1692 14.3741V14.8533C15.1692 15.5991 14.9025 16.32 14.4192 16.8858C13.11 18.4133 11.1208 19.1666 8.5 19.1666C5.87917 19.1666 3.89 18.4125 2.585 16.8833C2.10218 16.3178 1.83684 15.5986 1.83667 14.855V14.3733C1.83689 13.8764 2.03444 13.3999 2.3859 13.0486C2.73735 12.6973 3.21392 12.5 3.71084 12.5H13.2958ZM13.2958 13.75H3.71C3.62797 13.7499 3.54671 13.7659 3.47089 13.7972C3.39507 13.8286 3.32616 13.8745 3.26811 13.9325C3.21006 13.9905 3.16401 14.0593 3.13259 14.1351C3.10118 14.2109 3.085 14.2921 3.085 14.3741V14.8558C3.085 15.3016 3.245 15.7333 3.535 16.0725C4.57917 17.2958 6.21834 17.9175 8.49917 17.9175C10.7817 17.9175 12.4208 17.2958 13.4683 16.0725C13.7589 15.7327 13.9185 15.3003 13.9183 14.8533V14.3741C13.9183 14.2087 13.8527 14.0501 13.7358 13.9331C13.6189 13.816 13.4604 13.7502 13.295 13.75H13.2958ZM16.8792 1.16997C17.0231 1.0878 17.1937 1.06613 17.3536 1.10973C17.5134 1.15333 17.6494 1.25863 17.7317 1.40247C18.6475 3.00554 19.1279 4.82039 19.125 6.66664C19.125 8.54497 18.6367 10.3533 17.7225 11.9466C17.6826 12.0195 17.6285 12.0838 17.5635 12.1355C17.4985 12.1873 17.4238 12.2256 17.3438 12.2481C17.2638 12.2707 17.1801 12.277 17.0976 12.2668C17.0151 12.2566 16.9355 12.2301 16.8634 12.1887C16.7913 12.1474 16.7281 12.0921 16.6777 12.026C16.6272 11.96 16.5904 11.8845 16.5694 11.8041C16.5485 11.7237 16.5438 11.6399 16.5556 11.5576C16.5675 11.4753 16.5956 11.3962 16.6383 11.325C17.4515 9.90733 17.878 8.30094 17.875 6.66664C17.875 5.01414 17.4475 3.42497 16.6458 2.02247C16.5637 1.87848 16.5422 1.70777 16.586 1.5479C16.6297 1.38802 16.7352 1.25208 16.8792 1.16997ZM8.5 2.5033C9.60507 2.5033 10.6649 2.94229 11.4463 3.72369C12.2277 4.50509 12.6667 5.5649 12.6667 6.66997C12.6667 7.77504 12.2277 8.83485 11.4463 9.61625C10.6649 10.3977 9.60507 10.8366 8.5 10.8366C7.39493 10.8366 6.33513 10.3977 5.55373 9.61625C4.77232 8.83485 4.33334 7.77504 4.33334 6.66997C4.33334 5.5649 4.77232 4.50509 5.55373 3.72369C6.33513 2.94229 7.39493 2.5033 8.5 2.5033ZM13.9908 2.8333C14.1348 2.7512 14.3055 2.72966 14.4654 2.77342C14.6253 2.81718 14.7612 2.92265 14.8433 3.06664C15.4669 4.16383 15.7938 5.40461 15.7917 6.66664C15.7934 7.93126 15.4651 9.17445 14.8392 10.2733C14.7985 10.3447 14.7442 10.4073 14.6793 10.4577C14.6145 10.508 14.5403 10.5451 14.4611 10.5668C14.3819 10.5885 14.2992 10.5944 14.2177 10.5842C14.1363 10.5739 14.0576 10.5477 13.9863 10.5071C13.9149 10.4664 13.8523 10.4121 13.8019 10.3472C13.7515 10.2824 13.7144 10.2082 13.6927 10.129C13.671 10.0498 13.6651 9.96711 13.6754 9.88563C13.6856 9.80415 13.7118 9.72549 13.7525 9.65414C14.2714 8.74409 14.5434 7.71423 14.5417 6.66664C14.5437 5.6214 14.2731 4.5937 13.7567 3.68497C13.6748 3.54105 13.6534 3.37055 13.6972 3.21088C13.7409 3.0512 13.8471 2.91541 13.9908 2.8333ZM8.5 3.75414C8.11698 3.75414 7.73771 3.82958 7.38384 3.97615C7.02998 4.12273 6.70845 4.33757 6.43761 4.60841C6.16677 4.87925 5.95193 5.20078 5.80535 5.55464C5.65878 5.90851 5.58334 6.28778 5.58334 6.6708C5.58334 7.05383 5.65878 7.4331 5.80535 7.78696C5.95193 8.14083 6.16677 8.46236 6.43761 8.7332C6.70845 9.00404 7.02998 9.21888 7.38384 9.36545C7.73771 9.51203 8.11698 9.58747 8.5 9.58747C9.27355 9.58747 10.0154 9.28018 10.5624 8.7332C11.1094 8.18622 11.4167 7.44435 11.4167 6.6708C11.4167 5.89726 11.1094 5.15539 10.5624 4.60841C10.0154 4.06143 9.27355 3.75414 8.5 3.75414Z" fill="white" stroke="white" stroke-width="0.2"/>
</svg>
