<svg width="20" height="20" viewBox="0 0 20 20" fill="none" xmlns="http://www.w3.org/2000/svg">
<g clip-path="url(#clip0_471_1722)">
<path d="M9.99994 18.1667C7.92437 18.1674 5.92647 17.3775 4.41257 15.9576C2.89868 14.5377 1.98248 12.5945 1.85032 10.5231C1.71816 8.4518 2.37996 6.40788 3.70113 4.80711C5.0223 3.20633 6.90361 2.16892 8.96244 1.90585L10.0341 1.77002L9.3316 2.59002C8.36368 3.71375 7.78334 5.1193 7.67651 6.59857C7.56969 8.07784 7.94205 9.55219 8.73847 10.8033C9.53489 12.0545 10.713 13.0159 12.0985 13.5453C13.4839 14.0746 15.003 14.1438 16.4308 13.7425L17.4741 13.4534L16.8941 14.3667C16.1608 15.5321 15.1435 16.4922 13.9377 17.1569C12.7318 17.8215 11.3769 18.169 9.99994 18.1667ZM8.0391 2.93835C6.93496 3.24422 5.9179 3.80465 5.06952 4.57467C4.22115 5.3447 3.56509 6.30287 3.154 7.3723C2.74292 8.44173 2.58824 9.59264 2.7024 10.7327C2.81655 11.8727 3.19636 12.9701 3.81133 13.9368C4.4263 14.9034 5.25932 15.7125 6.24353 16.299C7.22774 16.8855 8.33573 17.2332 9.4786 17.3141C10.6215 17.3949 11.7674 17.2067 12.8244 16.7646C13.8813 16.3225 14.82 15.6388 15.5649 14.7684C15.2395 14.8114 14.9116 14.8331 14.5833 14.8334C13.1957 14.8345 11.8333 14.4628 10.6386 13.7572C9.44384 13.0515 8.46064 12.0378 7.79179 10.8221C7.12295 9.60636 6.79303 8.23326 6.83653 6.84637C6.88004 5.45949 7.29537 4.10977 8.0391 2.93835Z" fill="white" stroke="white" stroke-width="0.3"/>
</g>
<defs>
<clipPath id="clip0_471_1722">
<rect width="20" height="20" fill="white"/>
</clipPath>
</defs>
</svg>
